<?xml version="1.0" encoding="utf-8"?>
<!-- Generator: Adobe Illustrator 24.1.2, SVG Export Plug-In . SVG Version: 6.00 Build 0)  -->
<svg version="1.1" id="Ebene_1" xmlns="http://www.w3.org/2000/svg" xmlns:xlink="http://www.w3.org/1999/xlink" x="0px" y="0px"
	 viewBox="0 0 652.1 158.8" style="enable-background:new 0 0 652.1 158.8;" xml:space="preserve">
<style type="text/css">
	.st0{fill:#FCBF00;}
</style>
<g id="Flaechen">
</g>
<g id="Inhalt">
	<g>
		<g>
			<g>
				<path d="M182.2,143.1c2.9,2.5,6.1,3.6,9.7,3.6c4,0,6.6-1.7,6.6-4.9c0-2.7-1.7-3.8-4.9-5.2l-4.5-1.8c-3.6-1.4-6.9-3.5-6.9-8.3
					c0-5.3,4.6-8.1,9.9-8.1c3.4,0,6.5,0.9,8.8,2.5v4.2c-2.5-2-5.2-3.2-8.8-3.2c-3.4,0-6.1,1.5-6.1,4.6c0,2.6,1.8,3.7,4.6,4.8
					l4.9,1.9c4.7,1.8,6.8,4.3,6.8,8.5c0,5.3-4.4,8.4-10.4,8.4c-4.2,0-7.6-1.2-9.7-2.9L182.2,143.1L182.2,143.1z"/>
				<path d="M217.1,150.2c-6.1,0-10.2-4.8-10.2-11.6c0-6.8,4.1-11.6,10.2-11.6c6.1,0,10.2,4.8,10.2,11.6
					C227.3,145.4,223.2,150.2,217.1,150.2z M217.1,130.3c-4,0-6.4,3.4-6.4,8.3s2.4,8.3,6.4,8.3c4,0,6.4-3.4,6.4-8.3
					C223.5,133.7,221.1,130.3,217.1,130.3z"/>
				<path d="M243.9,120.6c-0.7-0.5-1.6-0.6-2.4-0.6c-2.2,0-3.7,1.4-3.7,4.1v3.4h5v3.2h-5v19.1h-3.7v-19.1h-3.8v-3.2h3.8v-3.7
					c0-4.5,2.9-7.1,6.8-7.1c1.2,0,2.1,0.1,2.9,0.5V120.6z"/>
				<path d="M255.2,149.7h-3.8v-19.1h-4.7v-3.2h4.7v-5.9h3.8v5.9h5.2v3.2h-5.2V149.7z"/>
				<path d="M285.3,144.5l4.9-17h3.7l-6.6,22.3h-3.7l-4.6-16.9l-4.7,16.9h-3.7l-6.6-22.3h3.8l4.9,17l4.6-17h3.4L285.3,144.5z"/>
				<path d="M310.7,134.9c0-2.8-2.1-4.5-5.3-4.5c-2.5,0-4.5,0.8-6.3,2v-3.6c1.5-1.1,4.2-1.9,6.9-1.9c5.3,0,8.4,2.9,8.4,7.6v15.1
					h-3.7v-1.7c-0.9,0.9-3.2,2.1-5.8,2.1c-4.6,0-8.3-2.7-8.3-7.1c0-4.2,3.7-7,8.5-7c2.3,0,4.6,1,5.6,1.8L310.7,134.9L310.7,134.9z
					 M310.7,141.9c-0.6-1.7-2.8-2.8-5.2-2.8c-2.7,0-5.3,1.2-5.3,3.9c0,2.7,2.6,4,5.3,4c2.4,0,4.6-1.1,5.2-2.8V141.9z"/>
				<path d="M332.8,131.2c-0.6-0.4-1.6-0.6-2.5-0.6c-2.4,0-4.4,1.6-5.2,4.2v15h-3.8v-22.3h3.8v2.9c1-1.9,3.1-3.4,5.5-3.4
					c1,0,1.8,0.1,2.2,0.4L332.8,131.2L332.8,131.2z"/>
				<path d="M339.9,139.2c0.1,5.2,3.4,7.6,7.5,7.6c2.5,0,4.3-0.6,6.3-2.1v3.5c-1.8,1.4-4.1,2-6.8,2c-6.4,0-10.7-4.4-10.7-11.4
					c0-6.9,4-11.8,9.9-11.8c6,0,9.1,4.4,9.1,10.9v1.4L339.9,139.2L339.9,139.2z M340.1,136.3h11.5c-0.1-3.3-1.8-6.1-5.4-6.1
					C343.2,130.2,340.8,132.2,340.1,136.3z"/>
				<path d="M361.5,149.8c-1.3-0.2-2.2-1.1-2.2-2.5c0-1.6,1.2-2.7,2.7-2.7s2.7,1.1,2.7,2.9c0,1.1-0.5,2.2-1.1,3.2l-2.7,4.4h-2.6
					L361.5,149.8z"/>
				<path d="M395.4,147.1c-1.1,1.6-3.5,3.1-6.3,3.1c-6.5,0-10-5.3-10-11.6c0-6.3,3.5-11.6,10-11.6c2.8,0,5.2,1.5,6.3,3.1v-13h3.8
					v32.6h-3.8V147.1z M395.4,134.1c-1.2-2.3-3.4-3.7-5.7-3.7c-4.3,0-6.8,3.5-6.8,8.2c0,4.7,2.5,8.2,6.8,8.2c2.4,0,4.6-1.4,5.7-3.7
					V134.1z"/>
				<path d="M408.3,123.1c-1.3,0-2.4-1.1-2.4-2.4c0-1.4,1.1-2.4,2.4-2.4c1.4,0,2.5,1.1,2.5,2.4C410.8,122,409.7,123.1,408.3,123.1z
					 M410.2,149.7h-3.8v-22.3h3.8V149.7z"/>
				<path d="M419.7,139.2c0.1,5.2,3.4,7.6,7.5,7.6c2.5,0,4.3-0.6,6.3-2.1v3.5c-1.8,1.4-4.1,2-6.8,2c-6.4,0-10.7-4.4-10.7-11.4
					c0-6.9,4-11.8,9.9-11.8c6,0,9.1,4.4,9.1,10.9v1.4L419.7,139.2L419.7,139.2z M419.9,136.3h11.5c-0.1-3.3-1.8-6.1-5.4-6.1
					C423,130.2,420.6,132.2,419.9,136.3z"/>
				<path d="M457,149.7h-3.8v-32.6h3.8v13c1.1-1.6,3.5-3.1,6.3-3.1c6.5,0,10,5.3,10,11.6c0,6.3-3.5,11.6-10,11.6
					c-2.8,0-5.2-1.5-6.3-3.1L457,149.7L457,149.7z M457,143.1c1.2,2.3,3.4,3.7,5.7,3.7c4.3,0,6.8-3.5,6.8-8.2c0-4.7-2.5-8.2-6.8-8.2
					c-2.4,0-4.6,1.4-5.7,3.7V143.1z"/>
				<path d="M481.5,139.2c0.2,5.2,3.4,7.6,7.5,7.6c2.5,0,4.3-0.6,6.3-2.1v3.5c-1.8,1.4-4.1,2-6.8,2c-6.4,0-10.7-4.4-10.7-11.4
					c0-6.9,4-11.8,9.9-11.8c6,0,9.1,4.4,9.1,10.9v1.4L481.5,139.2L481.5,139.2z M481.8,136.3h11.5c-0.2-3.3-1.8-6.1-5.4-6.1
					C484.9,130.2,482.5,132.2,481.8,136.3z"/>
				<path d="M517.6,146.8c-1.1,1.6-3.5,3-6.2,3c-6.5,0-9.9-5.4-9.9-11.4c0-6,3.4-11.4,9.9-11.4c2.8,0,5.1,1.4,6.2,3v-2.5h3.8V148
					c0,7.8-5.6,10.8-10.9,10.8c-2.9,0-5.5-0.8-7.2-2v-4.2c2.2,2.1,4.6,2.8,7.2,2.8c4,0,7.1-2.4,7.1-7.1V146.8z M517.6,133.8
					c-1.2-2.1-3.3-3.5-5.7-3.5c-4.2,0-6.7,3.4-6.7,8c0,4.6,2.5,8,6.7,8c2.4,0,4.5-1.4,5.7-3.5V133.8z"/>
				<path d="M531,139.2c0.2,5.2,3.4,7.6,7.5,7.6c2.5,0,4.3-0.6,6.3-2.1v3.5c-1.8,1.4-4.1,2-6.8,2c-6.4,0-10.7-4.4-10.7-11.4
					c0-6.9,4-11.8,9.9-11.8c6,0,9.1,4.4,9.1,10.9v1.4L531,139.2L531,139.2z M531.2,136.3h11.5c-0.2-3.3-1.8-6.1-5.4-6.1
					C534.3,130.2,531.9,132.2,531.2,136.3z"/>
				<path d="M554,123.1c-1.3,0-2.4-1.1-2.4-2.4c0-1.4,1.1-2.4,2.4-2.4c1.4,0,2.5,1.1,2.5,2.4C556.4,122,555.3,123.1,554,123.1z
					 M555.9,149.7h-3.8v-22.3h3.8V149.7z"/>
				<path d="M562,144c2.1,1.9,4.6,3,7.3,3c2.5,0,4.6-0.9,4.6-3.1c0-1.7-1.3-2.6-3.2-3.2l-3.1-1.1c-3.4-1.1-5.6-2.7-5.6-6.3
					c0-3.9,3.5-6.3,7.9-6.3c2.5,0,4.8,0.7,6.6,2v3.9c-1.9-1.6-3.9-2.7-6.6-2.7c-2.3,0-4.2,1-4.2,2.9c0,1.8,1.2,2.4,3.3,3.2l3.4,1.2
					c3.4,1.2,5.2,3.1,5.2,6.3c0,4.1-3.7,6.5-8.3,6.5c-2.9,0-5.7-0.9-7.3-2.2L562,144L562,144z"/>
				<path d="M589.8,149.7h-3.8v-19.1h-4.7v-3.2h4.7v-5.9h3.8v5.9h5.2v3.2h-5.2V149.7z"/>
				<path d="M601.9,139.2c0.2,5.2,3.4,7.6,7.5,7.6c2.5,0,4.3-0.6,6.3-2.1v3.5c-1.8,1.4-4.1,2-6.8,2c-6.4,0-10.7-4.4-10.7-11.4
					c0-6.9,4-11.8,9.9-11.8c6,0,9.1,4.4,9.1,10.9v1.4L601.9,139.2L601.9,139.2z M602.1,136.3h11.5c-0.2-3.3-1.8-6.1-5.4-6.1
					C605.2,130.2,602.8,132.2,602.1,136.3z"/>
				<path d="M634.5,131.2c-0.6-0.4-1.6-0.6-2.5-0.6c-2.4,0-4.4,1.6-5.2,4.2v15H623v-22.3h3.8v2.9c1-1.9,3.1-3.4,5.5-3.4
					c1,0,1.8,0.1,2.2,0.4L634.5,131.2L634.5,131.2z"/>
				<path d="M646.9,149.7h-3.8v-19.1h-4.7v-3.2h4.7v-5.9h3.8v5.9h5.2v3.2h-5.2V149.7z"/>
			</g>
			<g>
				<path d="M195.7,68.7v32.3h-13.5V21.3h30.8c16.5,0,27.1,8.3,27.1,23.9c0,13.4-7.8,21-20.4,23l23.1,32.9h-15.3l-22.2-32.3
					L195.7,68.7L195.7,68.7z M195.7,57.4h17c9,0,14-4.8,14-12.2c0-7.4-5.1-12.2-14-12.2h-17V57.4z"/>
				<path d="M252.3,69.3V21.3h13.5v46.5c0,15.3,6.5,22.5,18.4,22.5s18.4-7.1,18.4-22.5V21.3h13.5v48.1c0,21.8-12.9,33-32,33
					C265.2,102.4,252.3,91.2,252.3,69.3z"/>
				<path d="M390.5,78.2c0,14.9-10.4,22.9-27,22.9H333V21.3h27.9c16.6,0,27,7.4,27,21.7c0,8.6-4.5,14.8-10.4,16.9
					C385.1,62.4,390.5,69.8,390.5,78.2z M360.8,54.9c9.2,0,14.2-3.5,14.2-11S370,33,360.8,33h-14.7v21.8H360.8z M346.1,89.4h17.1
					c9.1,0,14-4.5,14-11.7c0-7.3-4.9-11.7-14-11.7h-17.1V89.4z"/>
				<path d="M418.2,101.1h-13.5V21.3h13.5L418.2,101.1L418.2,101.1z"/>
				<path d="M470.3,20c9,0,16,2.6,21.2,6.9v14c-6.4-6-12.9-8.8-21-8.8c-15.2,0-25.1,11.9-25.1,29.1c0,17,9.9,29,25.1,29
					c8.2,0,14.7-2.7,21-8.7v14c-5.2,4.3-12.2,6.9-21.2,6.9c-22.2,0-38.6-16.6-38.6-41.2C431.7,36.7,448,20,470.3,20z"/>
				<path d="M537.3,102.4c-21.6,0-36.8-17.4-36.8-41.2c0-23.9,15.2-41.2,36.8-41.2c21.6,0,36.9,17.3,36.9,41.2
					C574.2,85,558.9,102.4,537.3,102.4z M537.3,32.1c-14,0-23.1,12.2-23.1,29.1s9.1,29.1,23.1,29.1c14,0,23.2-12.2,23.2-29.1
					S551.3,32.1,537.3,32.1z"/>
				<path d="M651.9,101.1h-10.4L600.7,43v58.1h-13V21.3h12.7l38.4,55.3V21.3h13V101.1z"/>
			</g>
		</g>
		<polygon class="st0" points="35.4,0 0,61.4 35.4,122.8 106.3,122.8 141.7,61.4 106.3,0 		"/>
		<path d="M81.1,83.6H60.6c-1.6,0-3.1-0.9-3.9-2.2L46.5,63.6c-0.8-1.4-0.8-3.1,0-4.5l10.2-17.7c0.8-1.4,2.3-2.2,3.9-2.2h20.5
			c1.6,0,3.1,0.9,3.9,2.2l10.2,17.7c0.8,1.4,0.8,3.1,0,4.5L85,81.4C84.2,82.8,82.7,83.6,81.1,83.6z M63.2,74.6h15.3l7.6-13.2
			l-7.6-13.2H63.2l-7.6,13.2L63.2,74.6z"/>
		<path d="M33.6,88.2c-1.6,0-3.1-0.8-3.9-2.3L16.8,63.6c-0.8-1.4-0.8-3.1,0-4.5l25.1-43.5c0.8-1.4,2.3-2.3,3.9-2.3h47.8
			c2.5,0,4.5,2,4.5,4.5s-2,4.5-4.5,4.5H48.4l-22.5,39l11.6,20.1c1.2,2.2,0.5,4.9-1.7,6.1C35.1,88,34.4,88.2,33.6,88.2z"/>
		<path d="M95.9,109.2H48.1c-2.5,0-4.5-2-4.5-4.5s2-4.5,4.5-4.5h45.2l22.5-38.9l-11.4-19.7c-1.2-2.2-0.5-4.9,1.6-6.1
			c2.2-1.2,4.9-0.5,6.1,1.6l12.7,22c0.8,1.4,0.8,3.1,0,4.5L99.8,107C99,108.4,97.6,109.2,95.9,109.2z"/>
	</g>
</g>
<g id="Abstand">
</g>
</svg>
