<?xml version="1.0" encoding="utf-8"?>
<!-- Generator: Adobe Illustrator 22.0.1, SVG Export Plug-In . SVG Version: 6.00 Build 0)  -->
<svg version="1.1" id="Layer_1" xmlns="http://www.w3.org/2000/svg" xmlns:xlink="http://www.w3.org/1999/xlink" x="0px" y="0px"
	 viewBox="0 0 651.5 122.3" style="enable-background:new 0 0 651.5 122.3;" xml:space="preserve">
<style type="text/css">
	.st0{fill:#FCC000;}
</style>
<g id="Flaechen">
</g>
<g id="Inhalt">
	<g>
		<g>
			<g>
				<path d="M195.7,68.6V101h-13.5V21.2h30.8c16.5,0,27.1,8.3,27.1,23.9c0,13.4-7.8,21-20.4,23l23.1,32.9h-15.3l-22.2-32.3
					L195.7,68.6L195.7,68.6z M195.7,57.3h17c9,0,14-4.8,14-12.2s-5.1-12.2-14-12.2h-17V57.3z"/>
				<path d="M252.3,69.2V21.2h13.5v46.5c0,15.3,6.5,22.5,18.4,22.5s18.4-7.1,18.4-22.5V21.2h13.5v48.1c0,21.8-12.9,33-32,33
					C265.3,102.3,252.3,91.1,252.3,69.2z"/>
				<path d="M390.6,78.1c0,14.9-10.4,22.9-27,22.9H333V21.2h27.9c16.6,0,27,7.4,27,21.7c0,8.6-4.5,14.8-10.4,16.9
					C385.1,62.3,390.6,69.7,390.6,78.1z M360.8,54.7c9.2,0,14.2-3.5,14.2-11s-4.9-10.8-14.2-10.8h-14.7v21.8H360.8z M346.1,89.3
					h17.1c9.1,0,14-4.5,14-11.7c0-7.3-4.9-11.7-14-11.7h-17.1V89.3z"/>
				<path d="M418.2,101h-13.5V21.2h13.5V101z"/>
				<path d="M470.3,19.9c9,0,16,2.6,21.2,6.9v14c-6.4-6-12.9-8.8-21-8.8c-15.2,0-25.1,11.9-25.1,29.1c0,17,9.9,29,25.1,29
					c8.2,0,14.7-2.7,21-8.7v14c-5.2,4.3-12.2,6.9-21.2,6.9c-22.2,0-38.6-16.6-38.6-41.2C431.7,36.6,448.1,19.9,470.3,19.9z"/>
				<path d="M537.3,102.3c-21.6,0-36.8-17.4-36.8-41.2c0-23.9,15.2-41.2,36.8-41.2c21.6,0,36.9,17.3,36.9,41.2
					C574.2,84.9,558.9,102.3,537.3,102.3z M537.3,32c-14,0-23.1,12.2-23.1,29.1s9.1,29.1,23.1,29.1c14,0,23.2-12.2,23.2-29.1
					S551.3,32,537.3,32z"/>
				<path d="M651.9,101h-10.4l-40.8-58.1V101h-13V21.2h12.7l38.4,55.3V21.2h13V101z"/>
			</g>
		</g>
		<polygon class="st0" points="35.2,-0.1 -0.3,61.3 35.2,122.6 106,122.6 141.5,61.3 106,-0.1 		"/>
		<path d="M80.9,83.5H60.4c-1.6,0-3.1-0.9-3.9-2.3L46.2,63.5c-0.8-1.4-0.8-3.1,0-4.5l10.2-17.7c0.8-1.4,2.3-2.3,3.9-2.3h20.5
			c1.6,0,3.1,0.9,3.9,2.3L95,59c0.8,1.4,0.8,3.1,0,4.5L84.8,81.3C84,82.7,82.5,83.5,80.9,83.5z M63,74.5h15.3l7.6-13.2L78.3,48H63
			l-7.6,13.2L63,74.5z"/>
		<path d="M33.4,88.1c-1.6,0-3.1-0.8-3.9-2.3L16.6,63.5c-0.8-1.4-0.8-3.1,0-4.5l25.1-43.5c0.8-1.4,2.3-2.3,3.9-2.3h47.8
			c2.5,0,4.5,2,4.5,4.5s-2,4.5-4.5,4.5H48.1l-22.5,39l11.6,20.1c1.2,2.2,0.5,4.9-1.7,6.1C34.9,87.9,34.1,88.1,33.4,88.1z"/>
		<path d="M95.7,109.1H47.9c-2.5,0-4.5-2-4.5-4.5s2-4.5,4.5-4.5h45.2l22.5-38.9l-11.4-19.7c-1.2-2.2-0.5-4.9,1.6-6.1
			c2.2-1.2,4.9-0.5,6.1,1.6l12.7,22c0.8,1.4,0.8,3.1,0,4.5l-25.1,43.4C98.8,108.3,97.3,109.1,95.7,109.1z"/>
	</g>
</g>
<g id="Abstand">
</g>
</svg>
